<svg xmlns="http://www.w3.org/2000/svg" height="16" width="16" viewBox="0 0 512 512"><!--!Font Awesome Free 6.5.1 by @fontawesome - https://fontawesome.com License - https://fontawesome.com/license/free Copyright 2024 Fonticons, Inc.--><path d="M464 256A208 208 0 1 0 48 256a208 208 0 1 0 416 0zM0 256a256 256 0 1 1 512 0A256 256 0 1 1 0 256zm349.5 52.4c18.7-4.4 35.9 12.8 31.5 31.5l-8.6 36.9c-3.4 14.6-16.5 24.9-31.5 24.9c-53.5 0-96.7-43.2-96.7-96.7c0-15 10.3-28.1 24.9-31.5l36.9-8.6c18.7-4.4 35.9 12.8 31.5 31.5l-4.3 18.4c-1.4 6 4.9 11.5 10.4 9.1l18.4-4.3zm-160-72.2c0 13.3-10.7 24-24 24s-24-10.7-24-24s10.7-24 24-24s24 10.7 24 24z"/></svg>