<svg xmlns="http://www.w3.org/2000/svg" height="16" width="16" viewBox="0 0 512 512"><!--!Font Awesome Free 6.5.1 by @fontawesome - https://fontawesome.com License - https://fontawesome.com/license/free Copyright 2024 Fonticons, Inc.--><path d="M456 32h-304C121.1 32 96 57.1 96 88v320c0 13.3-10.7 24-24 24s-24-10.7-24-24V120c0-13.3-10.7-24-24-24S0 106.7 0 120v288c0 30.9 25.1 56 56 56h400c30.9 0 56-25.1 56-56V88c0-30.9-25.1-56-56-56zM164 404c0 6.6-5.4 12-12 12h-8c-6.6 0-12-5.4-12-12v-8c0-6.6 5.4-12 12-12h8c6.6 0 12 5.4 12 12v8zm0-64c0 6.6-5.4 12-12 12h-8c-6.6 0-12-5.4-12-12v-8c0-6.6 5.4-12 12-12h8c6.6 0 12 5.4 12 12v8zm0-64c0 6.6-5.4 12-12 12h-8c-6.6 0-12-5.4-12-12v-8c0-6.6 5.4-12 12-12h8c6.6 0 12 5.4 12 12v8zm96 128c0 6.6-5.4 12-12 12h-40c-6.6 0-12-5.4-12-12v-8c0-6.6 5.4-12 12-12h40c6.6 0 12 5.4 12 12v8zm0-64c0 6.6-5.4 12-12 12h-40c-6.6 0-12-5.4-12-12v-8c0-6.6 5.4-12 12-12h40c6.6 0 12 5.4 12 12v8zm0-64c0 6.6-5.4 12-12 12h-40c-6.6 0-12-5.4-12-12v-8c0-6.6 5.4-12 12-12h40c6.6 0 12 5.4 12 12v8zm160 128c0 6.6-5.4 12-12 12h-40c-6.6 0-12-5.4-12-12v-8c0-6.6 5.4-12 12-12h40c6.6 0 12 5.4 12 12v8zm0-64c0 6.6-5.4 12-12 12h-40c-6.6 0-12-5.4-12-12v-8c0-6.6 5.4-12 12-12h40c6.6 0 12 5.4 12 12v8zm0-64c0 6.6-5.4 12-12 12h-40c-6.6 0-12-5.4-12-12v-8c0-6.6 5.4-12 12-12h40c6.6 0 12 5.4 12 12v8z"/></svg>