<svg xmlns="http://www.w3.org/2000/svg" height="16" width="18" viewBox="0 0 576 512"><!--!Font Awesome Free 6.5.1 by @fontawesome - https://fontawesome.com License - https://fontawesome.com/license/free Copyright 2024 Fonticons, Inc.--><path d="M400 96l0 .7c-5.3-.4-10.6-.7-16-.7H256c-5.4 0-10.7 .3-16 .7V96c0-17.7 14.3-32 32-32h96c17.7 0 32 14.3 32 32zm49.3 32c-8.5-3.7-17.3-6.8-26.3-9.3c-3.7-1-7.5 1.3-8.5 5s1.3 7.5 5 8.5c8.2 2.2 16.2 5 23.8 8.5c3.7 1.7 8.1 .2 9.8-3.5s.2-8.1-3.5-9.8h-.3zM576 256c0-35.3-28.7-64-64-64H261.3c-15.3 0-30.5 2.7-44.8 8H176c-8.8 0-16 7.2-16 16v16c0 8.8 7.2 16 16 16H266.3c15.3 0 30.5-2.7 44.8-8H352v96H261.3c-15.3 0-30.5 2.7-44.8 8H192c-8.8 0-16 7.2-16 16v16c0 8.8 7.2 16 16 16h15.3c-4.2 10.1-6.5 21.1-6.5 32.7c0 5.3 .6 10.4 1.6 15.3H176c-8.8 0-16 7.2-16 16v16c0 8.8 7.2 16 16 16h44.9c24.2 30.1 61.2 49.3 102.6 49.3H352c17.7 0 32-14.3 32-32l0-.6c5.3 .4 10.6 .6 16 .6h32c3.5 0 6.8-.6 10-1.6V464c0 17.7-14.3 32-32 32H288c-88.4 0-160-71.6-160-160V192c0-88.4 71.6-160 160-160h64c17.7 0 32 14.3 32 32v4.2c-5.3-.8-10.6-1.5-16-2.1V64c0-8.8-7.2-16-16-16H288c-97.2 0-176 78.8-176 176V336c0 97.2 78.8 176 176 176h72c26.5 0 48-21.5 48-48V448c0-8.8-7.2-16-16-16H288c-50.3 0-92.4-34.6-104-81.3c-1.9-7.7-9.7-12.1-17.4-10.2s-12.1 9.7-10.2 17.4c12 48.6 53 86.1 102.9 95.3c-9.7 12.4-15.3 28-15.3 44.8c0 17.7 14.3 32 32 32h32c70.7 0 128-57.3 128-128c0-4.9-.3-9.7-.8-14.5c2.8 .3 5.6 .5 8.4 .5h32c35.3 0 64-28.7 64-64V256zM432 272a24 24 0 1 1 0 48 24 24 0 1 1 0-48z"/></svg>